<svg width="40" height="40" viewBox="0 0 40 40" fill="none" xmlns="http://www.w3.org/2000/svg">
<path fill-rule="evenodd" clip-rule="evenodd" d="M13.3333 11.6667V9.99999C13.3333 8.23188 14.0357 6.53619 15.2859 5.28595C16.5362 4.03571 18.2318 3.33333 20 3.33333C21.7681 3.33333 23.4638 4.03571 24.714 5.28595C25.9642 6.53619 26.6666 8.23188 26.6666 9.99999V11.6667H31.6666C32.5866 11.6667 33.3333 12.415 33.3333 13.345V33.3467C33.3333 35.18 31.8416 36.6667 30.01 36.6667H9.98996C9.10913 36.6667 8.26434 36.317 7.64119 35.6945C7.01804 35.0719 6.66751 34.2275 6.66663 33.3467V13.3467C6.66663 12.4167 7.40829 11.6667 8.33329 11.6667H13.3333ZM15.3333 11.6667H24.6666V9.99999C24.6666 8.76232 24.175 7.57533 23.2998 6.70016C22.4246 5.82499 21.2376 5.33333 20 5.33333C18.7623 5.33333 17.5753 5.82499 16.7001 6.70016C15.825 7.57533 15.3333 8.76232 15.3333 9.99999V11.6667ZM13.3333 13.6667H8.66663V33.3467C8.66663 34.0733 9.25996 34.6667 9.98996 34.6667H30.01C30.3604 34.6667 30.6964 34.5277 30.9445 34.2802C31.1926 34.0328 31.3324 33.6971 31.3333 33.3467V13.6667H26.6666V18.3333H24.6666V13.6667H15.3333V18.3333H13.3333V13.6667Z" fill="#111A39"/>
</svg>
