<svg width="27" height="30" viewBox="0 0 27 30" fill="none" xmlns="http://www.w3.org/2000/svg">
<path d="M3.33333 25.8333H8.33333V17.5C8.33333 17.0278 8.49333 16.6322 8.81333 16.3133C9.13333 15.9944 9.52889 15.8344 10 15.8333H16.6667C17.1389 15.8333 17.535 15.9933 17.855 16.3133C18.175 16.6333 18.3344 17.0289 18.3333 17.5V25.8333H23.3333V10.8333L13.3333 3.33333L3.33333 10.8333V25.8333ZM0 25.8333V10.8333C0 10.3056 0.118333 9.80556 0.355 9.33333C0.591666 8.86111 0.917778 8.47222 1.33333 8.16667L11.3333 0.666667C11.9167 0.222222 12.5833 0 13.3333 0C14.0833 0 14.75 0.222222 15.3333 0.666667L25.3333 8.16667C25.75 8.47222 26.0767 8.86111 26.3133 9.33333C26.55 9.80556 26.6678 10.3056 26.6667 10.8333V25.8333C26.6667 26.75 26.34 27.535 25.6867 28.1883C25.0333 28.8417 24.2489 29.1678 23.3333 29.1667H16.6667C16.1944 29.1667 15.7989 29.0067 15.48 28.6867C15.1611 28.3667 15.0011 27.9711 15 27.5V19.1667H11.6667V27.5C11.6667 27.9722 11.5067 28.3683 11.1867 28.6883C10.8667 29.0083 10.4711 29.1678 10 29.1667H3.33333C2.41667 29.1667 1.63222 28.8406 0.98 28.1883C0.327777 27.5361 0.00111111 26.7511 0 25.8333Z" fill="#CACACA"/>
</svg>
