<svg width="28" height="35" viewBox="0 0 28 35" fill="none" xmlns="http://www.w3.org/2000/svg">
<path d="M22.9061 13.7848H4.66938M22.9061 13.7848L20.6265 33.4212H8.08877L4.66938 13.7848M22.9061 13.7848C22.9061 11.4702 21.9454 9.2504 20.2354 7.61372C18.5254 5.97703 16.2061 5.05756 13.7877 5.05756C11.3694 5.05756 9.05011 5.97703 7.34009 7.61372C5.63006 9.2504 4.66938 11.4702 4.66938 13.7848M1.25 13.7848H26.3255" stroke="#111A39" stroke-width="2.5" stroke-linecap="round" stroke-linejoin="round"/>
<path d="M12.6876 22.5122L16.6829 2.95579C16.7507 2.66571 16.8796 2.39193 17.0619 2.15127C17.2442 1.91061 17.4759 1.70813 17.7429 1.55627C18.0099 1.4044 18.3064 1.30634 18.6144 1.26812C18.9224 1.22989 19.2353 1.2523 19.5339 1.33397L25.1858 2.87579M6.18921 22.5122H21.8925" stroke="#111A39" stroke-width="2.5" stroke-linecap="round" stroke-linejoin="round"/>
</svg>
