<svg width="18" height="18" viewBox="0 0 18 18" fill="none" xmlns="http://www.w3.org/2000/svg">
<path d="M8.4375 3.375C8.4375 2.92999 8.56947 2.49498 8.8167 2.12497C9.06393 1.75496 9.41533 1.46657 9.82647 1.29627C10.2376 1.12597 10.69 1.08142 11.1265 1.16823C11.5629 1.25505 11.9638 1.46934 12.2785 1.78401C12.5932 2.09868 12.8075 2.49959 12.8943 2.93605C12.9811 3.3725 12.9365 3.8249 12.7662 4.23604C12.5959 4.64717 12.3075 4.99857 11.9375 5.24581C11.5675 5.49304 11.1325 5.625 10.6875 5.625C10.0908 5.625 9.51847 5.38795 9.09651 4.96599C8.67456 4.54403 8.4375 3.97174 8.4375 3.375ZM14.625 9.5625C12.6113 9.5625 11.6852 8.62734 10.7051 7.63805C10.4569 7.38703 10.2002 7.12758 9.93165 6.89414C7.33008 4.6343 3.16618 8.49234 2.9904 8.65758C2.88572 8.76063 2.8255 8.90054 2.82262 9.0474C2.81974 9.19426 2.87442 9.33643 2.97497 9.4435C3.07553 9.55058 3.21398 9.61407 3.36074 9.62041C3.50749 9.62675 3.6509 9.57543 3.76032 9.47742C4.4147 8.88635 5.13471 8.37229 5.90625 7.94531C6.87516 7.42641 7.69149 7.22602 8.3461 7.34203L4.54641 16.0882C4.48708 16.225 4.48449 16.3797 4.53921 16.5184C4.59392 16.6571 4.70147 16.7684 4.83821 16.8279C4.90882 16.8592 4.98526 16.8753 5.0625 16.875C5.17213 16.875 5.27937 16.8431 5.37106 16.783C5.46275 16.7229 5.53489 16.6373 5.5786 16.5368L7.9404 11.1038L10.125 12.6647V16.3125C10.125 16.4617 10.1843 16.6048 10.2898 16.7102C10.3952 16.8157 10.5383 16.875 10.6875 16.875C10.8367 16.875 10.9798 16.8157 11.0853 16.7102C11.1907 16.6048 11.25 16.4617 11.25 16.3125V12.375C11.25 12.2855 11.2286 12.1972 11.1877 12.1176C11.1467 12.038 11.0873 11.9693 11.0145 11.9173L8.39883 10.0491L9.34313 7.875C9.52875 8.04656 9.71297 8.23148 9.90563 8.42625C10.902 9.43523 12.1423 10.6875 14.625 10.6875C14.7742 10.6875 14.9173 10.6282 15.0228 10.5227C15.1282 10.4173 15.1875 10.2742 15.1875 10.125C15.1875 9.97582 15.1282 9.83274 15.0228 9.72725C14.9173 9.62176 14.7742 9.5625 14.625 9.5625Z" fill="#111A39"/>
</svg>
