<svg width="30" height="30" viewBox="0 0 30 30" fill="none" xmlns="http://www.w3.org/2000/svg">
<path d="M17.5 7.5H7.5C6.335 7.5 5.7525 7.5 5.2925 7.69C4.98921 7.81578 4.71366 8.00007 4.4816 8.23235C4.24953 8.46462 4.0655 8.74034 3.94 9.04375C3.75 9.5025 3.75 10.085 3.75 11.25C4.74456 11.25 5.69839 11.6451 6.40165 12.3483C7.10491 13.0516 7.5 14.0054 7.5 15C7.5 15.9946 7.10491 16.9484 6.40165 17.6517C5.69839 18.3549 4.74456 18.75 3.75 18.75C3.75 19.915 3.75 20.4975 3.94 20.9562C4.0655 21.2597 4.24953 21.5354 4.4816 21.7677C4.71366 21.9999 4.98921 22.1842 5.2925 22.31C5.7525 22.5 6.335 22.5 7.5 22.5H17.5M17.5 7.5H22.5C23.665 7.5 24.2475 7.5 24.7062 7.69C25.0098 7.81564 25.2856 7.99987 25.5178 8.23215C25.7501 8.46444 25.9344 8.74023 26.06 9.04375C26.25 9.5025 26.25 10.085 26.25 11.25C25.2554 11.25 24.3016 11.6451 23.5983 12.3483C22.8951 13.0516 22.5 14.0054 22.5 15C22.5 15.9946 22.8951 16.9484 23.5983 17.6517C24.3016 18.3549 25.2554 18.75 26.25 18.75C26.25 19.915 26.25 20.4975 26.06 20.9562C25.9344 21.2598 25.7501 21.5356 25.5178 21.7678C25.2856 22.0001 25.0098 22.1844 24.7062 22.31C24.2475 22.5 23.665 22.5 22.5 22.5H17.5M17.5 7.5V22.5" stroke="#F1F1F5" stroke-width="3.33333" stroke-linecap="round" stroke-linejoin="round"/>
</svg>
